<mxfile host="app.diagrams.net" agent="Mozilla/5.0 (Windows NT 10.0; Win64; x64) AppleWebKit/537.36 (KHTML, like Gecko) Chrome/131.0.0.0 Safari/537.36" version="25.0.3">
  <diagram id="C5RBs43oDa-KdzZeNtuy" name="Page-1">
    <mxGraphModel dx="4638" dy="1514" grid="1" gridSize="10" guides="1" tooltips="1" connect="1" arrows="1" fold="1" page="1" pageScale="1" pageWidth="827" pageHeight="1169" math="0" shadow="0">
      <root>
        <mxCell id="WIyWlLk6GJQsqaUBKTNV-0" />
        <mxCell id="WIyWlLk6GJQsqaUBKTNV-1" parent="WIyWlLk6GJQsqaUBKTNV-0" />
        <mxCell id="WIyWlLk6GJQsqaUBKTNV-3" value="로그인 화면" style="rounded=1;whiteSpace=wrap;html=1;fontSize=12;glass=0;strokeWidth=1;shadow=0;" parent="WIyWlLk6GJQsqaUBKTNV-1" vertex="1">
          <mxGeometry x="-96" y="399" width="120" height="40" as="geometry" />
        </mxCell>
        <mxCell id="WIyWlLk6GJQsqaUBKTNV-7" value="회원정보 입력" style="rounded=1;whiteSpace=wrap;html=1;fontSize=12;glass=0;strokeWidth=1;shadow=0;" parent="WIyWlLk6GJQsqaUBKTNV-1" vertex="1">
          <mxGeometry x="-246" y="399" width="120" height="40" as="geometry" />
        </mxCell>
        <mxCell id="WIyWlLk6GJQsqaUBKTNV-12" value="카카오 로그인" style="rounded=1;whiteSpace=wrap;html=1;fontSize=12;glass=0;strokeWidth=1;shadow=0;" parent="WIyWlLk6GJQsqaUBKTNV-1" vertex="1">
          <mxGeometry x="-156" y="484" width="120" height="40" as="geometry" />
        </mxCell>
        <mxCell id="mIaSV0qaz3qORUngoqXa-2" value="" style="edgeStyle=orthogonalEdgeStyle;rounded=0;orthogonalLoop=1;jettySize=auto;html=1;" edge="1" parent="WIyWlLk6GJQsqaUBKTNV-1" source="mIaSV0qaz3qORUngoqXa-0" target="WIyWlLk6GJQsqaUBKTNV-3">
          <mxGeometry relative="1" as="geometry" />
        </mxCell>
        <mxCell id="mIaSV0qaz3qORUngoqXa-0" value="로딩 화면" style="ellipse;whiteSpace=wrap;html=1;" vertex="1" parent="WIyWlLk6GJQsqaUBKTNV-1">
          <mxGeometry x="-96" y="289" width="120" height="80" as="geometry" />
        </mxCell>
        <mxCell id="mIaSV0qaz3qORUngoqXa-3" value="" style="edgeStyle=orthogonalEdgeStyle;rounded=0;orthogonalLoop=1;jettySize=auto;html=1;exitX=0;exitY=0.75;exitDx=0;exitDy=0;" edge="1" parent="WIyWlLk6GJQsqaUBKTNV-1">
          <mxGeometry relative="1" as="geometry">
            <mxPoint x="-96" y="413" as="sourcePoint" />
            <mxPoint x="-126" y="418" as="targetPoint" />
            <Array as="points">
              <mxPoint x="-96" y="418" />
            </Array>
          </mxGeometry>
        </mxCell>
        <mxCell id="mIaSV0qaz3qORUngoqXa-21" style="edgeStyle=orthogonalEdgeStyle;rounded=0;orthogonalLoop=1;jettySize=auto;html=1;entryX=0.5;entryY=0;entryDx=0;entryDy=0;" edge="1" parent="WIyWlLk6GJQsqaUBKTNV-1" source="mIaSV0qaz3qORUngoqXa-6" target="WIyWlLk6GJQsqaUBKTNV-7">
          <mxGeometry relative="1" as="geometry">
            <Array as="points">
              <mxPoint x="-186" y="364" />
              <mxPoint x="-186" y="364" />
            </Array>
          </mxGeometry>
        </mxCell>
        <mxCell id="mIaSV0qaz3qORUngoqXa-6" value="필수 정보 실시간 유효성 체크" style="swimlane;fontStyle=0;childLayout=stackLayout;horizontal=1;startSize=26;fillColor=none;horizontalStack=0;resizeParent=1;resizeParentMax=0;resizeLast=0;collapsible=1;marginBottom=0;html=1;" vertex="1" parent="WIyWlLk6GJQsqaUBKTNV-1">
          <mxGeometry x="-286" y="164" width="180" height="160" as="geometry">
            <mxRectangle x="70" y="30" width="60" height="30" as="alternateBounds" />
          </mxGeometry>
        </mxCell>
        <mxCell id="mIaSV0qaz3qORUngoqXa-7" value="&lt;div&gt;&lt;span style=&quot;background-color: initial;&quot;&gt;&lt;br&gt;&lt;/span&gt;&lt;/div&gt;&lt;span style=&quot;background-color: initial;&quot;&gt;아이디 중복 체크&lt;/span&gt;&lt;br&gt;&lt;span style=&quot;background-color: initial;&quot;&gt;아이디 규칙 체크&lt;/span&gt;&lt;br&gt;&lt;span style=&quot;background-color: initial;&quot;&gt;비밀번호 규칙 체크&lt;/span&gt;&lt;br&gt;&lt;span style=&quot;background-color: initial;&quot;&gt;이메일 중복 체크&lt;/span&gt;&lt;br&gt;&lt;span style=&quot;background-color: initial;&quot;&gt;전화번호 규칙 체크&lt;/span&gt;" style="text;strokeColor=none;fillColor=none;align=center;verticalAlign=top;spacingLeft=4;spacingRight=4;overflow=hidden;rotatable=0;points=[[0,0.5],[1,0.5]];portConstraint=eastwest;whiteSpace=wrap;html=1;" vertex="1" parent="mIaSV0qaz3qORUngoqXa-6">
          <mxGeometry y="26" width="180" height="134" as="geometry" />
        </mxCell>
        <mxCell id="mIaSV0qaz3qORUngoqXa-22" style="edgeStyle=orthogonalEdgeStyle;rounded=0;orthogonalLoop=1;jettySize=auto;html=1;exitX=0;exitY=0.5;exitDx=0;exitDy=0;" edge="1" parent="WIyWlLk6GJQsqaUBKTNV-1" source="WIyWlLk6GJQsqaUBKTNV-7">
          <mxGeometry relative="1" as="geometry">
            <mxPoint x="-282" y="354" as="sourcePoint" />
            <mxPoint x="-286" y="419" as="targetPoint" />
          </mxGeometry>
        </mxCell>
        <mxCell id="mIaSV0qaz3qORUngoqXa-26" style="edgeStyle=orthogonalEdgeStyle;rounded=0;orthogonalLoop=1;jettySize=auto;html=1;" edge="1" parent="WIyWlLk6GJQsqaUBKTNV-1" source="mIaSV0qaz3qORUngoqXa-23">
          <mxGeometry relative="1" as="geometry">
            <mxPoint x="-406" y="419" as="targetPoint" />
          </mxGeometry>
        </mxCell>
        <mxCell id="mIaSV0qaz3qORUngoqXa-23" value="데이터&amp;nbsp;&lt;div&gt;&lt;span style=&quot;background-color: initial;&quot;&gt;유형 체크&lt;/span&gt;&lt;/div&gt;" style="rhombus;whiteSpace=wrap;html=1;" vertex="1" parent="WIyWlLk6GJQsqaUBKTNV-1">
          <mxGeometry x="-366" y="379" width="80" height="80" as="geometry" />
        </mxCell>
        <mxCell id="mIaSV0qaz3qORUngoqXa-24" style="edgeStyle=orthogonalEdgeStyle;rounded=0;orthogonalLoop=1;jettySize=auto;html=1;" edge="1" parent="WIyWlLk6GJQsqaUBKTNV-1" source="mIaSV0qaz3qORUngoqXa-23">
          <mxGeometry relative="1" as="geometry">
            <mxPoint x="-266" y="419" as="targetPoint" />
            <Array as="points">
              <mxPoint x="-326" y="364" />
              <mxPoint x="-266" y="364" />
            </Array>
          </mxGeometry>
        </mxCell>
        <mxCell id="mIaSV0qaz3qORUngoqXa-27" value="계정 등록" style="rounded=1;whiteSpace=wrap;html=1;fontSize=12;glass=0;strokeWidth=1;shadow=0;" vertex="1" parent="WIyWlLk6GJQsqaUBKTNV-1">
          <mxGeometry x="-526" y="399" width="120" height="40" as="geometry" />
        </mxCell>
        <mxCell id="mIaSV0qaz3qORUngoqXa-33" value="" style="shape=partialRectangle;whiteSpace=wrap;html=1;bottom=1;right=1;left=1;top=0;fillColor=none;routingCenterX=-0.5;rotation=-180;" vertex="1" parent="WIyWlLk6GJQsqaUBKTNV-1">
          <mxGeometry x="-75.51999999999998" y="459" width="79.05" height="25" as="geometry" />
        </mxCell>
        <mxCell id="mIaSV0qaz3qORUngoqXa-34" value="" style="endArrow=classic;html=1;rounded=0;exitX=1;exitY=0.75;exitDx=0;exitDy=0;entryX=1;entryY=0;entryDx=0;entryDy=0;" edge="1" parent="WIyWlLk6GJQsqaUBKTNV-1" source="mIaSV0qaz3qORUngoqXa-33" target="mIaSV0qaz3qORUngoqXa-33">
          <mxGeometry width="50" height="50" relative="1" as="geometry">
            <mxPoint x="-46" y="474" as="sourcePoint" />
            <mxPoint x="-46" y="514" as="targetPoint" />
          </mxGeometry>
        </mxCell>
        <mxCell id="mIaSV0qaz3qORUngoqXa-35" value="" style="endArrow=classic;html=1;rounded=0;entryX=0;entryY=0;entryDx=0;entryDy=0;exitX=0;exitY=0.75;exitDx=0;exitDy=0;" edge="1" parent="WIyWlLk6GJQsqaUBKTNV-1" source="mIaSV0qaz3qORUngoqXa-33" target="mIaSV0qaz3qORUngoqXa-33">
          <mxGeometry width="50" height="50" relative="1" as="geometry">
            <mxPoint x="-27.900000000000546" y="478.31814538676593" as="sourcePoint" />
            <mxPoint x="13.050000000000011" y="499.69" as="targetPoint" />
          </mxGeometry>
        </mxCell>
        <mxCell id="mIaSV0qaz3qORUngoqXa-39" value="" style="endArrow=none;html=1;rounded=0;exitX=0.5;exitY=1;exitDx=0;exitDy=0;entryX=0.5;entryY=1;entryDx=0;entryDy=0;" edge="1" parent="WIyWlLk6GJQsqaUBKTNV-1" source="mIaSV0qaz3qORUngoqXa-33" target="WIyWlLk6GJQsqaUBKTNV-3">
          <mxGeometry width="50" height="50" relative="1" as="geometry">
            <mxPoint x="-75.51999999999998" y="489" as="sourcePoint" />
            <mxPoint x="-25.519999999999982" y="439" as="targetPoint" />
          </mxGeometry>
        </mxCell>
        <mxCell id="mIaSV0qaz3qORUngoqXa-40" value="로그인 페이지" style="rounded=1;whiteSpace=wrap;html=1;fontSize=12;glass=0;strokeWidth=1;shadow=0;" vertex="1" parent="WIyWlLk6GJQsqaUBKTNV-1">
          <mxGeometry x="-26" y="484" width="120" height="40" as="geometry" />
        </mxCell>
        <mxCell id="mIaSV0qaz3qORUngoqXa-41" value="" style="endArrow=classic;html=1;rounded=0;exitX=0.5;exitY=1;exitDx=0;exitDy=0;" edge="1" parent="WIyWlLk6GJQsqaUBKTNV-1" source="mIaSV0qaz3qORUngoqXa-40">
          <mxGeometry width="50" height="50" relative="1" as="geometry">
            <mxPoint x="-166" y="574" as="sourcePoint" />
            <mxPoint x="34" y="554" as="targetPoint" />
          </mxGeometry>
        </mxCell>
        <mxCell id="mIaSV0qaz3qORUngoqXa-42" value="아이디/비밀번호 확인" style="rounded=1;whiteSpace=wrap;html=1;fontSize=12;glass=0;strokeWidth=1;shadow=0;" vertex="1" parent="WIyWlLk6GJQsqaUBKTNV-1">
          <mxGeometry x="-26" y="555" width="120" height="40" as="geometry" />
        </mxCell>
        <mxCell id="mIaSV0qaz3qORUngoqXa-43" value="" style="endArrow=classic;html=1;rounded=0;exitX=0.5;exitY=1;exitDx=0;exitDy=0;entryX=0.5;entryY=0;entryDx=0;entryDy=0;" edge="1" parent="WIyWlLk6GJQsqaUBKTNV-1" source="WIyWlLk6GJQsqaUBKTNV-12" target="mIaSV0qaz3qORUngoqXa-45">
          <mxGeometry width="50" height="50" relative="1" as="geometry">
            <mxPoint x="-166" y="574" as="sourcePoint" />
            <mxPoint x="-47" y="660" as="targetPoint" />
          </mxGeometry>
        </mxCell>
        <mxCell id="mIaSV0qaz3qORUngoqXa-44" value="" style="endArrow=classic;html=1;rounded=0;exitX=0.5;exitY=1;exitDx=0;exitDy=0;entryX=0.5;entryY=0;entryDx=0;entryDy=0;" edge="1" parent="WIyWlLk6GJQsqaUBKTNV-1" source="mIaSV0qaz3qORUngoqXa-42" target="mIaSV0qaz3qORUngoqXa-45">
          <mxGeometry width="50" height="50" relative="1" as="geometry">
            <mxPoint x="34" y="641" as="sourcePoint" />
            <mxPoint x="-36" y="700" as="targetPoint" />
          </mxGeometry>
        </mxCell>
        <mxCell id="mIaSV0qaz3qORUngoqXa-49" style="edgeStyle=orthogonalEdgeStyle;rounded=0;orthogonalLoop=1;jettySize=auto;html=1;" edge="1" parent="WIyWlLk6GJQsqaUBKTNV-1" source="mIaSV0qaz3qORUngoqXa-45">
          <mxGeometry relative="1" as="geometry">
            <mxPoint x="-36" y="740" as="targetPoint" />
          </mxGeometry>
        </mxCell>
        <mxCell id="mIaSV0qaz3qORUngoqXa-45" value="게시판 페이지" style="rounded=1;whiteSpace=wrap;html=1;fontSize=12;glass=0;strokeWidth=1;shadow=0;" vertex="1" parent="WIyWlLk6GJQsqaUBKTNV-1">
          <mxGeometry x="-96" y="670" width="120" height="40" as="geometry" />
        </mxCell>
        <mxCell id="mIaSV0qaz3qORUngoqXa-136" style="edgeStyle=orthogonalEdgeStyle;rounded=0;orthogonalLoop=1;jettySize=auto;html=1;" edge="1" parent="WIyWlLk6GJQsqaUBKTNV-1" source="mIaSV0qaz3qORUngoqXa-47" target="mIaSV0qaz3qORUngoqXa-135">
          <mxGeometry relative="1" as="geometry" />
        </mxCell>
        <mxCell id="mIaSV0qaz3qORUngoqXa-47" value="지역 선택 / 견종 작성" style="rounded=1;whiteSpace=wrap;html=1;fontSize=12;glass=0;strokeWidth=1;shadow=0;" vertex="1" parent="WIyWlLk6GJQsqaUBKTNV-1">
          <mxGeometry x="94" y="622" width="120" height="40" as="geometry" />
        </mxCell>
        <mxCell id="mIaSV0qaz3qORUngoqXa-48" value="" style="endArrow=classic;html=1;rounded=0;exitX=1;exitY=1;exitDx=0;exitDy=0;entryX=1;entryY=0;entryDx=0;entryDy=0;" edge="1" parent="WIyWlLk6GJQsqaUBKTNV-1" source="mIaSV0qaz3qORUngoqXa-53" target="mIaSV0qaz3qORUngoqXa-53">
          <mxGeometry width="50" height="50" relative="1" as="geometry">
            <mxPoint x="-276" y="730" as="sourcePoint" />
            <mxPoint x="-226" y="680" as="targetPoint" />
          </mxGeometry>
        </mxCell>
        <mxCell id="mIaSV0qaz3qORUngoqXa-50" value="네비게이터 바" style="rounded=1;whiteSpace=wrap;html=1;fontSize=12;glass=0;strokeWidth=1;shadow=0;" vertex="1" parent="WIyWlLk6GJQsqaUBKTNV-1">
          <mxGeometry x="-96" y="740" width="120" height="40" as="geometry" />
        </mxCell>
        <mxCell id="mIaSV0qaz3qORUngoqXa-53" value="" style="shape=partialRectangle;whiteSpace=wrap;html=1;bottom=1;right=1;left=1;top=0;fillColor=none;routingCenterX=-0.5;rotation=-180;" vertex="1" parent="WIyWlLk6GJQsqaUBKTNV-1">
          <mxGeometry x="-256.7" y="800" width="441.41" height="50" as="geometry" />
        </mxCell>
        <mxCell id="mIaSV0qaz3qORUngoqXa-54" value="" style="endArrow=classic;html=1;rounded=0;exitX=0;exitY=0.75;exitDx=0;exitDy=0;entryX=0;entryY=0;entryDx=0;entryDy=0;" edge="1" parent="WIyWlLk6GJQsqaUBKTNV-1" source="mIaSV0qaz3qORUngoqXa-53" target="mIaSV0qaz3qORUngoqXa-53">
          <mxGeometry width="50" height="50" relative="1" as="geometry">
            <mxPoint x="-86" y="750" as="sourcePoint" />
            <mxPoint x="-36" y="700" as="targetPoint" />
          </mxGeometry>
        </mxCell>
        <mxCell id="mIaSV0qaz3qORUngoqXa-60" value="" style="endArrow=classic;html=1;rounded=0;exitX=0.75;exitY=1;exitDx=0;exitDy=0;entryX=0.75;entryY=0;entryDx=0;entryDy=0;" edge="1" parent="WIyWlLk6GJQsqaUBKTNV-1">
          <mxGeometry width="50" height="50" relative="1" as="geometry">
            <mxPoint x="-114.64750000000004" y="800" as="sourcePoint" />
            <mxPoint x="-114.64750000000004" y="850" as="targetPoint" />
          </mxGeometry>
        </mxCell>
        <mxCell id="mIaSV0qaz3qORUngoqXa-61" value="" style="endArrow=classic;html=1;rounded=0;exitX=0.25;exitY=1;exitDx=0;exitDy=0;entryX=0.25;entryY=0;entryDx=0;entryDy=0;" edge="1" parent="WIyWlLk6GJQsqaUBKTNV-1">
          <mxGeometry width="50" height="50" relative="1" as="geometry">
            <mxPoint x="41.11750000000029" y="800" as="sourcePoint" />
            <mxPoint x="41.11750000000029" y="850" as="targetPoint" />
          </mxGeometry>
        </mxCell>
        <mxCell id="mIaSV0qaz3qORUngoqXa-62" value="실종 글쓰기 페이지" style="rounded=1;whiteSpace=wrap;html=1;fontSize=12;glass=0;strokeWidth=1;shadow=0;" vertex="1" parent="WIyWlLk6GJQsqaUBKTNV-1">
          <mxGeometry x="-316" y="850" width="120" height="40" as="geometry" />
        </mxCell>
        <mxCell id="mIaSV0qaz3qORUngoqXa-63" value="제보 글쓰기 페이지" style="rounded=1;whiteSpace=wrap;html=1;fontSize=12;glass=0;strokeWidth=1;shadow=0;" vertex="1" parent="WIyWlLk6GJQsqaUBKTNV-1">
          <mxGeometry x="-166" y="850" width="120" height="40" as="geometry" />
        </mxCell>
        <mxCell id="mIaSV0qaz3qORUngoqXa-65" value="게시판 페이지" style="rounded=1;whiteSpace=wrap;html=1;fontSize=12;glass=0;strokeWidth=1;shadow=0;" vertex="1" parent="WIyWlLk6GJQsqaUBKTNV-1">
          <mxGeometry x="-16" y="850" width="120" height="40" as="geometry" />
        </mxCell>
        <mxCell id="mIaSV0qaz3qORUngoqXa-66" value="마이페이지" style="rounded=1;whiteSpace=wrap;html=1;fontSize=12;glass=0;strokeWidth=1;shadow=0;" vertex="1" parent="WIyWlLk6GJQsqaUBKTNV-1">
          <mxGeometry x="134" y="850" width="120" height="40" as="geometry" />
        </mxCell>
        <mxCell id="mIaSV0qaz3qORUngoqXa-70" value="" style="endArrow=none;html=1;rounded=0;exitX=0.5;exitY=1;exitDx=0;exitDy=0;entryX=0.5;entryY=1;entryDx=0;entryDy=0;" edge="1" parent="WIyWlLk6GJQsqaUBKTNV-1" source="mIaSV0qaz3qORUngoqXa-50" target="mIaSV0qaz3qORUngoqXa-53">
          <mxGeometry width="50" height="50" relative="1" as="geometry">
            <mxPoint x="-86" y="750" as="sourcePoint" />
            <mxPoint x="-36" y="700" as="targetPoint" />
          </mxGeometry>
        </mxCell>
        <mxCell id="mIaSV0qaz3qORUngoqXa-71" value="" style="shape=partialRectangle;whiteSpace=wrap;html=1;bottom=1;right=1;left=1;top=0;fillColor=none;routingCenterX=-0.5;rotation=90;" vertex="1" parent="WIyWlLk6GJQsqaUBKTNV-1">
          <mxGeometry x="84" y="491.5" width="79.05" height="25" as="geometry" />
        </mxCell>
        <mxCell id="mIaSV0qaz3qORUngoqXa-73" value="" style="endArrow=classic;html=1;rounded=0;entryX=0;entryY=0;entryDx=0;entryDy=0;exitX=0;exitY=0.75;exitDx=0;exitDy=0;" edge="1" parent="WIyWlLk6GJQsqaUBKTNV-1" source="mIaSV0qaz3qORUngoqXa-71" target="mIaSV0qaz3qORUngoqXa-71">
          <mxGeometry width="50" height="50" relative="1" as="geometry">
            <mxPoint x="165.09999999999945" y="488.31814538676593" as="sourcePoint" />
            <mxPoint x="206.04999999999995" y="509.69" as="targetPoint" />
          </mxGeometry>
        </mxCell>
        <mxCell id="mIaSV0qaz3qORUngoqXa-74" value="" style="endArrow=none;html=1;rounded=0;exitX=0.5;exitY=1;exitDx=0;exitDy=0;entryX=1;entryY=0.5;entryDx=0;entryDy=0;" edge="1" parent="WIyWlLk6GJQsqaUBKTNV-1" source="mIaSV0qaz3qORUngoqXa-71" target="mIaSV0qaz3qORUngoqXa-40">
          <mxGeometry width="50" height="50" relative="1" as="geometry">
            <mxPoint x="117.48000000000002" y="499" as="sourcePoint" />
            <mxPoint x="157" y="449" as="targetPoint" />
          </mxGeometry>
        </mxCell>
        <mxCell id="mIaSV0qaz3qORUngoqXa-75" value="아이디 찾기" style="rounded=1;whiteSpace=wrap;html=1;fontSize=12;glass=0;strokeWidth=1;shadow=0;" vertex="1" parent="WIyWlLk6GJQsqaUBKTNV-1">
          <mxGeometry x="134" y="444" width="120" height="40" as="geometry" />
        </mxCell>
        <mxCell id="mIaSV0qaz3qORUngoqXa-76" value="비밀번호 찾기" style="rounded=1;whiteSpace=wrap;html=1;fontSize=12;glass=0;strokeWidth=1;shadow=0;" vertex="1" parent="WIyWlLk6GJQsqaUBKTNV-1">
          <mxGeometry x="134" y="526" width="120" height="40" as="geometry" />
        </mxCell>
        <mxCell id="mIaSV0qaz3qORUngoqXa-77" value="" style="endArrow=classic;html=1;rounded=0;exitX=1;exitY=0.5;exitDx=0;exitDy=0;" edge="1" parent="WIyWlLk6GJQsqaUBKTNV-1" source="mIaSV0qaz3qORUngoqXa-75">
          <mxGeometry width="50" height="50" relative="1" as="geometry">
            <mxPoint x="334" y="554" as="sourcePoint" />
            <mxPoint x="284" y="464" as="targetPoint" />
          </mxGeometry>
        </mxCell>
        <mxCell id="mIaSV0qaz3qORUngoqXa-78" value="" style="endArrow=classic;html=1;rounded=0;exitX=1;exitY=0.5;exitDx=0;exitDy=0;" edge="1" parent="WIyWlLk6GJQsqaUBKTNV-1" source="mIaSV0qaz3qORUngoqXa-76">
          <mxGeometry width="50" height="50" relative="1" as="geometry">
            <mxPoint x="334" y="556" as="sourcePoint" />
            <mxPoint x="284" y="546" as="targetPoint" />
          </mxGeometry>
        </mxCell>
        <mxCell id="mIaSV0qaz3qORUngoqXa-81" style="edgeStyle=orthogonalEdgeStyle;rounded=0;orthogonalLoop=1;jettySize=auto;html=1;exitX=1;exitY=0.5;exitDx=0;exitDy=0;" edge="1" parent="WIyWlLk6GJQsqaUBKTNV-1" source="mIaSV0qaz3qORUngoqXa-79">
          <mxGeometry relative="1" as="geometry">
            <mxPoint x="434" y="464.2380952380952" as="targetPoint" />
          </mxGeometry>
        </mxCell>
        <mxCell id="mIaSV0qaz3qORUngoqXa-79" value="가입한 이메일 작성" style="rounded=1;whiteSpace=wrap;html=1;fontSize=12;glass=0;strokeWidth=1;shadow=0;" vertex="1" parent="WIyWlLk6GJQsqaUBKTNV-1">
          <mxGeometry x="284" y="444" width="120" height="40" as="geometry" />
        </mxCell>
        <mxCell id="mIaSV0qaz3qORUngoqXa-83" value="이메일 발송" style="rounded=1;whiteSpace=wrap;html=1;fontSize=12;glass=0;strokeWidth=1;shadow=0;" vertex="1" parent="WIyWlLk6GJQsqaUBKTNV-1">
          <mxGeometry x="544" y="444" width="120" height="40" as="geometry" />
        </mxCell>
        <mxCell id="mIaSV0qaz3qORUngoqXa-86" style="edgeStyle=orthogonalEdgeStyle;rounded=0;orthogonalLoop=1;jettySize=auto;html=1;exitX=1;exitY=0.5;exitDx=0;exitDy=0;entryX=0;entryY=0.5;entryDx=0;entryDy=0;" edge="1" parent="WIyWlLk6GJQsqaUBKTNV-1" source="mIaSV0qaz3qORUngoqXa-85" target="mIaSV0qaz3qORUngoqXa-83">
          <mxGeometry relative="1" as="geometry" />
        </mxCell>
        <mxCell id="mIaSV0qaz3qORUngoqXa-87" style="edgeStyle=orthogonalEdgeStyle;rounded=0;orthogonalLoop=1;jettySize=auto;html=1;entryX=0.5;entryY=0;entryDx=0;entryDy=0;" edge="1" parent="WIyWlLk6GJQsqaUBKTNV-1" source="mIaSV0qaz3qORUngoqXa-85" target="mIaSV0qaz3qORUngoqXa-79">
          <mxGeometry relative="1" as="geometry">
            <mxPoint x="354" y="394" as="targetPoint" />
            <Array as="points">
              <mxPoint x="474" y="404" />
              <mxPoint x="344" y="404" />
            </Array>
          </mxGeometry>
        </mxCell>
        <mxCell id="mIaSV0qaz3qORUngoqXa-85" value="유효성&lt;div&gt;체크&lt;/div&gt;" style="rhombus;whiteSpace=wrap;html=1;" vertex="1" parent="WIyWlLk6GJQsqaUBKTNV-1">
          <mxGeometry x="434" y="424" width="80" height="80" as="geometry" />
        </mxCell>
        <mxCell id="mIaSV0qaz3qORUngoqXa-92" value="No" style="text;strokeColor=none;fillColor=none;align=left;verticalAlign=top;spacingLeft=4;spacingRight=4;overflow=hidden;rotatable=0;points=[[0,0.5],[1,0.5]];portConstraint=eastwest;whiteSpace=wrap;html=1;" vertex="1" parent="WIyWlLk6GJQsqaUBKTNV-1">
          <mxGeometry x="-310" y="338" width="30" height="16" as="geometry" />
        </mxCell>
        <mxCell id="mIaSV0qaz3qORUngoqXa-94" value="Yes" style="text;strokeColor=none;fillColor=none;align=left;verticalAlign=top;spacingLeft=4;spacingRight=4;overflow=hidden;rotatable=0;points=[[0,0.5],[1,0.5]];portConstraint=eastwest;whiteSpace=wrap;html=1;" vertex="1" parent="WIyWlLk6GJQsqaUBKTNV-1">
          <mxGeometry x="-397" y="392" width="30" height="16" as="geometry" />
        </mxCell>
        <mxCell id="mIaSV0qaz3qORUngoqXa-95" value="No" style="text;strokeColor=none;fillColor=none;align=left;verticalAlign=top;spacingLeft=4;spacingRight=4;overflow=hidden;rotatable=0;points=[[0,0.5],[1,0.5]];portConstraint=eastwest;whiteSpace=wrap;html=1;" vertex="1" parent="WIyWlLk6GJQsqaUBKTNV-1">
          <mxGeometry x="394" y="379" width="30" height="16" as="geometry" />
        </mxCell>
        <mxCell id="mIaSV0qaz3qORUngoqXa-96" value="Yes" style="text;strokeColor=none;fillColor=none;align=left;verticalAlign=top;spacingLeft=4;spacingRight=4;overflow=hidden;rotatable=0;points=[[0,0.5],[1,0.5]];portConstraint=eastwest;whiteSpace=wrap;html=1;" vertex="1" parent="WIyWlLk6GJQsqaUBKTNV-1">
          <mxGeometry x="508" y="439" width="30" height="16" as="geometry" />
        </mxCell>
        <mxCell id="mIaSV0qaz3qORUngoqXa-97" style="edgeStyle=orthogonalEdgeStyle;rounded=0;orthogonalLoop=1;jettySize=auto;html=1;exitX=1;exitY=0.5;exitDx=0;exitDy=0;" edge="1" parent="WIyWlLk6GJQsqaUBKTNV-1" source="mIaSV0qaz3qORUngoqXa-98">
          <mxGeometry relative="1" as="geometry">
            <mxPoint x="435" y="547.2380952380952" as="targetPoint" />
          </mxGeometry>
        </mxCell>
        <mxCell id="mIaSV0qaz3qORUngoqXa-98" value="가입한 아이디 /&lt;div&gt;이메일 작성&lt;/div&gt;" style="rounded=1;whiteSpace=wrap;html=1;fontSize=12;glass=0;strokeWidth=1;shadow=0;" vertex="1" parent="WIyWlLk6GJQsqaUBKTNV-1">
          <mxGeometry x="285" y="527" width="120" height="40" as="geometry" />
        </mxCell>
        <mxCell id="mIaSV0qaz3qORUngoqXa-106" style="edgeStyle=orthogonalEdgeStyle;rounded=0;orthogonalLoop=1;jettySize=auto;html=1;" edge="1" parent="WIyWlLk6GJQsqaUBKTNV-1" source="mIaSV0qaz3qORUngoqXa-99">
          <mxGeometry relative="1" as="geometry">
            <mxPoint x="694" y="547" as="targetPoint" />
          </mxGeometry>
        </mxCell>
        <mxCell id="mIaSV0qaz3qORUngoqXa-99" value="이메일 발송" style="rounded=1;whiteSpace=wrap;html=1;fontSize=12;glass=0;strokeWidth=1;shadow=0;" vertex="1" parent="WIyWlLk6GJQsqaUBKTNV-1">
          <mxGeometry x="545" y="527" width="120" height="40" as="geometry" />
        </mxCell>
        <mxCell id="mIaSV0qaz3qORUngoqXa-100" style="edgeStyle=orthogonalEdgeStyle;rounded=0;orthogonalLoop=1;jettySize=auto;html=1;exitX=1;exitY=0.5;exitDx=0;exitDy=0;entryX=0;entryY=0.5;entryDx=0;entryDy=0;" edge="1" parent="WIyWlLk6GJQsqaUBKTNV-1" source="mIaSV0qaz3qORUngoqXa-102" target="mIaSV0qaz3qORUngoqXa-99">
          <mxGeometry relative="1" as="geometry" />
        </mxCell>
        <mxCell id="mIaSV0qaz3qORUngoqXa-101" style="edgeStyle=orthogonalEdgeStyle;rounded=0;orthogonalLoop=1;jettySize=auto;html=1;entryX=0.5;entryY=1;entryDx=0;entryDy=0;" edge="1" parent="WIyWlLk6GJQsqaUBKTNV-1" source="mIaSV0qaz3qORUngoqXa-102" target="mIaSV0qaz3qORUngoqXa-98">
          <mxGeometry relative="1" as="geometry">
            <mxPoint x="355" y="477" as="targetPoint" />
            <Array as="points">
              <mxPoint x="475" y="606" />
              <mxPoint x="345" y="606" />
            </Array>
          </mxGeometry>
        </mxCell>
        <mxCell id="mIaSV0qaz3qORUngoqXa-102" value="유효성&lt;div&gt;체크&lt;/div&gt;" style="rhombus;whiteSpace=wrap;html=1;" vertex="1" parent="WIyWlLk6GJQsqaUBKTNV-1">
          <mxGeometry x="435" y="507" width="80" height="80" as="geometry" />
        </mxCell>
        <mxCell id="mIaSV0qaz3qORUngoqXa-103" value="No" style="text;strokeColor=none;fillColor=none;align=left;verticalAlign=top;spacingLeft=4;spacingRight=4;overflow=hidden;rotatable=0;points=[[0,0.5],[1,0.5]];portConstraint=eastwest;whiteSpace=wrap;html=1;" vertex="1" parent="WIyWlLk6GJQsqaUBKTNV-1">
          <mxGeometry x="394" y="582" width="30" height="16" as="geometry" />
        </mxCell>
        <mxCell id="mIaSV0qaz3qORUngoqXa-104" value="Yes" style="text;strokeColor=none;fillColor=none;align=left;verticalAlign=top;spacingLeft=4;spacingRight=4;overflow=hidden;rotatable=0;points=[[0,0.5],[1,0.5]];portConstraint=eastwest;whiteSpace=wrap;html=1;" vertex="1" parent="WIyWlLk6GJQsqaUBKTNV-1">
          <mxGeometry x="509" y="546" width="30" height="16" as="geometry" />
        </mxCell>
        <mxCell id="mIaSV0qaz3qORUngoqXa-105" style="edgeStyle=orthogonalEdgeStyle;rounded=0;orthogonalLoop=1;jettySize=auto;html=1;exitX=1;exitY=0.25;exitDx=0;exitDy=0;entryX=1;entryY=0;entryDx=0;entryDy=0;" edge="1" parent="WIyWlLk6GJQsqaUBKTNV-1" source="mIaSV0qaz3qORUngoqXa-71" target="mIaSV0qaz3qORUngoqXa-71">
          <mxGeometry relative="1" as="geometry" />
        </mxCell>
        <mxCell id="mIaSV0qaz3qORUngoqXa-110" style="edgeStyle=orthogonalEdgeStyle;rounded=0;orthogonalLoop=1;jettySize=auto;html=1;exitX=1;exitY=0.5;exitDx=0;exitDy=0;" edge="1" parent="WIyWlLk6GJQsqaUBKTNV-1" source="mIaSV0qaz3qORUngoqXa-191">
          <mxGeometry relative="1" as="geometry">
            <mxPoint x="813" y="1070" as="targetPoint" />
            <mxPoint x="763" y="1073" as="sourcePoint" />
          </mxGeometry>
        </mxCell>
        <mxCell id="mIaSV0qaz3qORUngoqXa-195" style="edgeStyle=orthogonalEdgeStyle;rounded=0;orthogonalLoop=1;jettySize=auto;html=1;" edge="1" parent="WIyWlLk6GJQsqaUBKTNV-1" source="mIaSV0qaz3qORUngoqXa-107" target="mIaSV0qaz3qORUngoqXa-116">
          <mxGeometry relative="1" as="geometry" />
        </mxCell>
        <mxCell id="mIaSV0qaz3qORUngoqXa-107" value="확인 코드&lt;div&gt;인증&lt;/div&gt;" style="rhombus;whiteSpace=wrap;html=1;" vertex="1" parent="WIyWlLk6GJQsqaUBKTNV-1">
          <mxGeometry x="694" y="507" width="80" height="80" as="geometry" />
        </mxCell>
        <mxCell id="mIaSV0qaz3qORUngoqXa-111" value="Yes" style="text;strokeColor=none;fillColor=none;align=left;verticalAlign=top;spacingLeft=4;spacingRight=4;overflow=hidden;rotatable=0;points=[[0,0.5],[1,0.5]];portConstraint=eastwest;whiteSpace=wrap;html=1;" vertex="1" parent="WIyWlLk6GJQsqaUBKTNV-1">
          <mxGeometry x="764" y="1048" width="30" height="16" as="geometry" />
        </mxCell>
        <mxCell id="mIaSV0qaz3qORUngoqXa-114" style="edgeStyle=orthogonalEdgeStyle;rounded=0;orthogonalLoop=1;jettySize=auto;html=1;entryX=0.5;entryY=1;entryDx=0;entryDy=0;exitX=0.5;exitY=1;exitDx=0;exitDy=0;" edge="1" parent="WIyWlLk6GJQsqaUBKTNV-1" source="mIaSV0qaz3qORUngoqXa-191" target="mIaSV0qaz3qORUngoqXa-190">
          <mxGeometry relative="1" as="geometry">
            <mxPoint x="587" y="1090" as="targetPoint" />
            <Array as="points">
              <mxPoint x="723" y="1110" />
              <mxPoint x="723" y="1129" />
              <mxPoint x="564" y="1129" />
            </Array>
            <mxPoint x="717" y="1110" as="sourcePoint" />
          </mxGeometry>
        </mxCell>
        <mxCell id="mIaSV0qaz3qORUngoqXa-115" value="No" style="text;strokeColor=none;fillColor=none;align=left;verticalAlign=top;spacingLeft=4;spacingRight=4;overflow=hidden;rotatable=0;points=[[0,0.5],[1,0.5]];portConstraint=eastwest;whiteSpace=wrap;html=1;" vertex="1" parent="WIyWlLk6GJQsqaUBKTNV-1">
          <mxGeometry x="629" y="1107" width="33" height="16" as="geometry" />
        </mxCell>
        <mxCell id="mIaSV0qaz3qORUngoqXa-117" style="edgeStyle=orthogonalEdgeStyle;rounded=0;orthogonalLoop=1;jettySize=auto;html=1;entryX=0.5;entryY=0;entryDx=0;entryDy=0;" edge="1" parent="WIyWlLk6GJQsqaUBKTNV-1" source="mIaSV0qaz3qORUngoqXa-116" target="mIaSV0qaz3qORUngoqXa-40">
          <mxGeometry relative="1" as="geometry">
            <mxPoint x="843" y="150" as="targetPoint" />
            <Array as="points">
              <mxPoint x="865" y="300" />
              <mxPoint x="34" y="300" />
            </Array>
          </mxGeometry>
        </mxCell>
        <mxCell id="mIaSV0qaz3qORUngoqXa-116" value="비밀번호 재설정" style="rounded=1;whiteSpace=wrap;html=1;fontSize=12;glass=0;strokeWidth=1;shadow=0;" vertex="1" parent="WIyWlLk6GJQsqaUBKTNV-1">
          <mxGeometry x="805" y="527" width="120" height="40" as="geometry" />
        </mxCell>
        <mxCell id="mIaSV0qaz3qORUngoqXa-118" value="Yes" style="text;strokeColor=none;fillColor=none;align=left;verticalAlign=top;spacingLeft=4;spacingRight=4;overflow=hidden;rotatable=0;points=[[0,0.5],[1,0.5]];portConstraint=eastwest;whiteSpace=wrap;html=1;" vertex="1" parent="WIyWlLk6GJQsqaUBKTNV-1">
          <mxGeometry x="413" y="273" width="30" height="16" as="geometry" />
        </mxCell>
        <mxCell id="mIaSV0qaz3qORUngoqXa-119" value="조건에 일치하는&amp;nbsp;&lt;div&gt;게시글&lt;/div&gt;" style="rounded=1;whiteSpace=wrap;html=1;fontSize=12;glass=0;strokeWidth=1;shadow=0;" vertex="1" parent="WIyWlLk6GJQsqaUBKTNV-1">
          <mxGeometry x="391" y="622" width="120" height="40" as="geometry" />
        </mxCell>
        <mxCell id="mIaSV0qaz3qORUngoqXa-121" value="" style="shape=partialRectangle;whiteSpace=wrap;html=1;bottom=1;right=1;left=1;top=0;fillColor=none;routingCenterX=-0.5;rotation=90;" vertex="1" parent="WIyWlLk6GJQsqaUBKTNV-1">
          <mxGeometry x="12.030000000000001" y="668.47" width="112.75" height="42.75" as="geometry" />
        </mxCell>
        <mxCell id="mIaSV0qaz3qORUngoqXa-122" value="" style="endArrow=classic;html=1;rounded=0;entryX=0;entryY=0;entryDx=0;entryDy=0;exitX=0;exitY=0.75;exitDx=0;exitDy=0;" edge="1" parent="WIyWlLk6GJQsqaUBKTNV-1" source="mIaSV0qaz3qORUngoqXa-121" target="mIaSV0qaz3qORUngoqXa-121">
          <mxGeometry width="50" height="50" relative="1" as="geometry">
            <mxPoint x="101.09999999999945" y="674.318145386766" as="sourcePoint" />
            <mxPoint x="142.04999999999995" y="695.69" as="targetPoint" />
          </mxGeometry>
        </mxCell>
        <mxCell id="mIaSV0qaz3qORUngoqXa-123" value="" style="endArrow=none;html=1;rounded=0;exitX=0.5;exitY=1;exitDx=0;exitDy=0;entryX=1;entryY=0.5;entryDx=0;entryDy=0;" edge="1" parent="WIyWlLk6GJQsqaUBKTNV-1" source="mIaSV0qaz3qORUngoqXa-121" target="mIaSV0qaz3qORUngoqXa-45">
          <mxGeometry width="50" height="50" relative="1" as="geometry">
            <mxPoint x="63.48000000000002" y="697" as="sourcePoint" />
            <mxPoint x="40" y="702" as="targetPoint" />
          </mxGeometry>
        </mxCell>
        <mxCell id="mIaSV0qaz3qORUngoqXa-124" style="edgeStyle=orthogonalEdgeStyle;rounded=0;orthogonalLoop=1;jettySize=auto;html=1;exitX=1;exitY=0.25;exitDx=0;exitDy=0;entryX=1;entryY=0;entryDx=0;entryDy=0;" edge="1" parent="WIyWlLk6GJQsqaUBKTNV-1" source="mIaSV0qaz3qORUngoqXa-121" target="mIaSV0qaz3qORUngoqXa-121">
          <mxGeometry relative="1" as="geometry" />
        </mxCell>
        <mxCell id="mIaSV0qaz3qORUngoqXa-126" value="필수 정보 실시간 유효성 체크" style="swimlane;fontStyle=0;childLayout=stackLayout;horizontal=1;startSize=26;fillColor=none;horizontalStack=0;resizeParent=1;resizeParentMax=0;resizeLast=0;collapsible=1;marginBottom=0;html=1;" vertex="1" parent="WIyWlLk6GJQsqaUBKTNV-1">
          <mxGeometry x="-394" y="920" width="180" height="160" as="geometry">
            <mxRectangle x="70" y="30" width="60" height="30" as="alternateBounds" />
          </mxGeometry>
        </mxCell>
        <mxCell id="mIaSV0qaz3qORUngoqXa-127" value="&lt;div&gt;&lt;span style=&quot;background-color: initial;&quot;&gt;&lt;br&gt;&lt;/span&gt;&lt;/div&gt;&lt;div&gt;&lt;span style=&quot;background-color: initial;&quot;&gt;반려견 이름 체크&lt;/span&gt;&lt;/div&gt;&lt;span style=&quot;background-color: initial;&quot;&gt;견종 체크&lt;/span&gt;&lt;br&gt;&lt;span style=&quot;background-color: initial;&quot;&gt;나이 체크&lt;/span&gt;&lt;div&gt;몸무게 체크&lt;div&gt;&lt;span style=&quot;background-color: initial;&quot;&gt;지역 체크&lt;/span&gt;&lt;/div&gt;&lt;div&gt;실종일 체크&lt;br&gt;&lt;span style=&quot;background-color: initial;&quot;&gt;특징 체크&lt;/span&gt;&lt;/div&gt;&lt;/div&gt;" style="text;strokeColor=none;fillColor=none;align=center;verticalAlign=top;spacingLeft=4;spacingRight=4;overflow=hidden;rotatable=0;points=[[0,0.5],[1,0.5]];portConstraint=eastwest;whiteSpace=wrap;html=1;" vertex="1" parent="mIaSV0qaz3qORUngoqXa-126">
          <mxGeometry y="26" width="180" height="134" as="geometry" />
        </mxCell>
        <mxCell id="mIaSV0qaz3qORUngoqXa-141" style="edgeStyle=orthogonalEdgeStyle;rounded=0;orthogonalLoop=1;jettySize=auto;html=1;entryX=0.5;entryY=1;entryDx=0;entryDy=0;" edge="1" parent="WIyWlLk6GJQsqaUBKTNV-1" source="mIaSV0qaz3qORUngoqXa-129" target="mIaSV0qaz3qORUngoqXa-63">
          <mxGeometry relative="1" as="geometry" />
        </mxCell>
        <mxCell id="mIaSV0qaz3qORUngoqXa-129" value="필수 정보 실시간 유효성 체크" style="swimlane;fontStyle=0;childLayout=stackLayout;horizontal=1;startSize=26;fillColor=none;horizontalStack=0;resizeParent=1;resizeParentMax=0;resizeLast=0;collapsible=1;marginBottom=0;html=1;" vertex="1" parent="WIyWlLk6GJQsqaUBKTNV-1">
          <mxGeometry x="-196" y="920" width="180" height="160" as="geometry">
            <mxRectangle x="70" y="30" width="60" height="30" as="alternateBounds" />
          </mxGeometry>
        </mxCell>
        <mxCell id="mIaSV0qaz3qORUngoqXa-130" value="&lt;br&gt;&lt;div&gt;&lt;span style=&quot;background-color: initial;&quot;&gt;견종 체크&lt;/span&gt;&lt;div&gt;&lt;span style=&quot;background-color: initial;&quot;&gt;지역 체크&lt;/span&gt;&lt;br&gt;&lt;span style=&quot;background-color: initial;&quot;&gt;특징 체크&lt;/span&gt;&lt;/div&gt;&lt;/div&gt;&lt;div&gt;&lt;span style=&quot;background-color: initial;&quot;&gt;발견일 체크&lt;/span&gt;&lt;/div&gt;" style="text;strokeColor=none;fillColor=none;align=center;verticalAlign=top;spacingLeft=4;spacingRight=4;overflow=hidden;rotatable=0;points=[[0,0.5],[1,0.5]];portConstraint=eastwest;whiteSpace=wrap;html=1;" vertex="1" parent="mIaSV0qaz3qORUngoqXa-129">
          <mxGeometry y="26" width="180" height="134" as="geometry" />
        </mxCell>
        <mxCell id="mIaSV0qaz3qORUngoqXa-138" style="edgeStyle=orthogonalEdgeStyle;rounded=0;orthogonalLoop=1;jettySize=auto;html=1;" edge="1" parent="WIyWlLk6GJQsqaUBKTNV-1" source="mIaSV0qaz3qORUngoqXa-133">
          <mxGeometry relative="1" as="geometry">
            <mxPoint x="243" y="750" as="targetPoint" />
          </mxGeometry>
        </mxCell>
        <mxCell id="mIaSV0qaz3qORUngoqXa-133" value="게시글 클릭" style="rounded=1;whiteSpace=wrap;html=1;fontSize=12;glass=0;strokeWidth=1;shadow=0;" vertex="1" parent="WIyWlLk6GJQsqaUBKTNV-1">
          <mxGeometry x="94" y="730" width="120" height="40" as="geometry" />
        </mxCell>
        <mxCell id="mIaSV0qaz3qORUngoqXa-137" style="edgeStyle=orthogonalEdgeStyle;rounded=0;orthogonalLoop=1;jettySize=auto;html=1;entryX=0;entryY=0.5;entryDx=0;entryDy=0;" edge="1" parent="WIyWlLk6GJQsqaUBKTNV-1" target="mIaSV0qaz3qORUngoqXa-119">
          <mxGeometry relative="1" as="geometry">
            <mxPoint x="403" y="642" as="targetPoint" />
            <mxPoint x="363" y="642" as="sourcePoint" />
          </mxGeometry>
        </mxCell>
        <mxCell id="mIaSV0qaz3qORUngoqXa-135" value="검색" style="rounded=1;whiteSpace=wrap;html=1;fontSize=12;glass=0;strokeWidth=1;shadow=0;" vertex="1" parent="WIyWlLk6GJQsqaUBKTNV-1">
          <mxGeometry x="243" y="622" width="120" height="40" as="geometry" />
        </mxCell>
        <mxCell id="mIaSV0qaz3qORUngoqXa-139" value="상세 정보 확인" style="rounded=1;whiteSpace=wrap;html=1;fontSize=12;glass=0;strokeWidth=1;shadow=0;" vertex="1" parent="WIyWlLk6GJQsqaUBKTNV-1">
          <mxGeometry x="243" y="730" width="120" height="40" as="geometry" />
        </mxCell>
        <mxCell id="mIaSV0qaz3qORUngoqXa-143" style="edgeStyle=orthogonalEdgeStyle;rounded=0;orthogonalLoop=1;jettySize=auto;html=1;exitX=0.75;exitY=0;exitDx=0;exitDy=0;entryX=0.471;entryY=1.01;entryDx=0;entryDy=0;entryPerimeter=0;" edge="1" parent="WIyWlLk6GJQsqaUBKTNV-1" source="mIaSV0qaz3qORUngoqXa-126" target="mIaSV0qaz3qORUngoqXa-62">
          <mxGeometry relative="1" as="geometry">
            <mxPoint x="-187" y="900" as="sourcePoint" />
            <mxPoint x="-259" y="892" as="targetPoint" />
          </mxGeometry>
        </mxCell>
        <mxCell id="mIaSV0qaz3qORUngoqXa-144" value="상세정보 확인 및 수정 가능 내용" style="swimlane;fontStyle=0;childLayout=stackLayout;horizontal=1;startSize=26;fillColor=none;horizontalStack=0;resizeParent=1;resizeParentMax=0;resizeLast=0;collapsible=1;marginBottom=0;html=1;" vertex="1" parent="WIyWlLk6GJQsqaUBKTNV-1">
          <mxGeometry x="393" y="672" width="180" height="160" as="geometry">
            <mxRectangle x="70" y="30" width="60" height="30" as="alternateBounds" />
          </mxGeometry>
        </mxCell>
        <mxCell id="mIaSV0qaz3qORUngoqXa-145" value="&lt;div&gt;&lt;div&gt;&lt;span style=&quot;background-color: initial;&quot;&gt;지역(수정 X)&lt;/span&gt;&lt;/div&gt;&lt;/div&gt;&lt;div&gt;&lt;span style=&quot;background-color: initial;&quot;&gt;&lt;br&gt;&lt;/span&gt;&lt;/div&gt;&lt;div&gt;&lt;span style=&quot;background-color: initial;&quot;&gt;반려견 이름&lt;/span&gt;&lt;/div&gt;&lt;span style=&quot;background-color: initial;&quot;&gt;견종&lt;/span&gt;&lt;br&gt;&lt;span style=&quot;background-color: initial;&quot;&gt;나이&lt;/span&gt;&lt;div&gt;몸무게&lt;span style=&quot;background-color: initial;&quot;&gt;&amp;nbsp;&lt;/span&gt;&lt;div&gt;&lt;span style=&quot;background-color: initial;&quot;&gt;실종일&lt;/span&gt;&lt;/div&gt;&lt;div&gt;&lt;span style=&quot;background-color: initial;&quot;&gt;특징&lt;/span&gt;&lt;/div&gt;&lt;/div&gt;" style="text;strokeColor=none;fillColor=none;align=center;verticalAlign=top;spacingLeft=4;spacingRight=4;overflow=hidden;rotatable=0;points=[[0,0.5],[1,0.5]];portConstraint=eastwest;whiteSpace=wrap;html=1;" vertex="1" parent="mIaSV0qaz3qORUngoqXa-144">
          <mxGeometry y="26" width="180" height="134" as="geometry" />
        </mxCell>
        <mxCell id="mIaSV0qaz3qORUngoqXa-146" value="" style="endArrow=classic;html=1;rounded=0;entryX=1;entryY=0.5;entryDx=0;entryDy=0;exitX=0.009;exitY=0.394;exitDx=0;exitDy=0;exitPerimeter=0;" edge="1" parent="WIyWlLk6GJQsqaUBKTNV-1" source="mIaSV0qaz3qORUngoqXa-145" target="mIaSV0qaz3qORUngoqXa-139">
          <mxGeometry width="50" height="50" relative="1" as="geometry">
            <mxPoint x="403" y="750" as="sourcePoint" />
            <mxPoint x="393" y="790" as="targetPoint" />
          </mxGeometry>
        </mxCell>
        <mxCell id="mIaSV0qaz3qORUngoqXa-147" value="" style="endArrow=none;dashed=1;html=1;dashPattern=1 3;strokeWidth=2;rounded=0;exitX=1;exitY=0.5;exitDx=0;exitDy=0;entryX=0.018;entryY=0.4;entryDx=0;entryDy=0;entryPerimeter=0;" edge="1" parent="WIyWlLk6GJQsqaUBKTNV-1" source="mIaSV0qaz3qORUngoqXa-139" target="mIaSV0qaz3qORUngoqXa-145">
          <mxGeometry width="50" height="50" relative="1" as="geometry">
            <mxPoint x="193" y="840" as="sourcePoint" />
            <mxPoint x="393" y="750" as="targetPoint" />
          </mxGeometry>
        </mxCell>
        <mxCell id="mIaSV0qaz3qORUngoqXa-149" value="" style="endArrow=none;dashed=1;html=1;dashPattern=1 3;strokeWidth=2;rounded=0;entryX=0.56;entryY=1.015;entryDx=0;entryDy=0;entryPerimeter=0;exitX=0.5;exitY=0;exitDx=0;exitDy=0;" edge="1" parent="WIyWlLk6GJQsqaUBKTNV-1" source="WIyWlLk6GJQsqaUBKTNV-7" target="mIaSV0qaz3qORUngoqXa-7">
          <mxGeometry width="50" height="50" relative="1" as="geometry">
            <mxPoint x="-77" y="330" as="sourcePoint" />
            <mxPoint x="-27" y="280" as="targetPoint" />
          </mxGeometry>
        </mxCell>
        <mxCell id="mIaSV0qaz3qORUngoqXa-150" value="" style="endArrow=none;dashed=1;html=1;dashPattern=1 3;strokeWidth=2;rounded=0;entryX=0.5;entryY=1;entryDx=0;entryDy=0;exitX=0.5;exitY=0;exitDx=0;exitDy=0;" edge="1" parent="WIyWlLk6GJQsqaUBKTNV-1" source="mIaSV0qaz3qORUngoqXa-129" target="mIaSV0qaz3qORUngoqXa-63">
          <mxGeometry width="50" height="50" relative="1" as="geometry">
            <mxPoint x="-77" y="950" as="sourcePoint" />
            <mxPoint x="-27" y="900" as="targetPoint" />
          </mxGeometry>
        </mxCell>
        <mxCell id="mIaSV0qaz3qORUngoqXa-151" value="" style="endArrow=none;dashed=1;html=1;dashPattern=1 3;strokeWidth=2;rounded=0;entryX=0.5;entryY=1;entryDx=0;entryDy=0;exitX=0.75;exitY=0;exitDx=0;exitDy=0;" edge="1" parent="WIyWlLk6GJQsqaUBKTNV-1" source="mIaSV0qaz3qORUngoqXa-126" target="mIaSV0qaz3qORUngoqXa-62">
          <mxGeometry width="50" height="50" relative="1" as="geometry">
            <mxPoint x="-77" y="950" as="sourcePoint" />
            <mxPoint x="-27" y="900" as="targetPoint" />
          </mxGeometry>
        </mxCell>
        <mxCell id="mIaSV0qaz3qORUngoqXa-152" value="" style="shape=partialRectangle;whiteSpace=wrap;html=1;bottom=1;right=1;left=1;top=0;fillColor=none;routingCenterX=-0.5;rotation=90;" vertex="1" parent="WIyWlLk6GJQsqaUBKTNV-1">
          <mxGeometry x="-2.1599999999999966" y="1152.75" width="620.41" height="53.5" as="geometry" />
        </mxCell>
        <mxCell id="mIaSV0qaz3qORUngoqXa-153" value="" style="endArrow=none;html=1;rounded=0;exitX=1;exitY=0.5;exitDx=0;exitDy=0;entryX=0;entryY=1;entryDx=0;entryDy=0;" edge="1" parent="WIyWlLk6GJQsqaUBKTNV-1" target="mIaSV0qaz3qORUngoqXa-152">
          <mxGeometry width="50" height="50" relative="1" as="geometry">
            <mxPoint x="254" y="870" as="sourcePoint" />
            <mxPoint x="289.7049999999999" y="864.2950000000001" as="targetPoint" />
          </mxGeometry>
        </mxCell>
        <mxCell id="mIaSV0qaz3qORUngoqXa-156" value="알림" style="rounded=1;whiteSpace=wrap;html=1;fontSize=12;glass=0;strokeWidth=1;shadow=0;" vertex="1" parent="WIyWlLk6GJQsqaUBKTNV-1">
          <mxGeometry x="334" y="850" width="120" height="40" as="geometry" />
        </mxCell>
        <mxCell id="mIaSV0qaz3qORUngoqXa-157" value="로그아웃" style="rounded=1;whiteSpace=wrap;html=1;fontSize=12;glass=0;strokeWidth=1;shadow=0;" vertex="1" parent="WIyWlLk6GJQsqaUBKTNV-1">
          <mxGeometry x="334" y="1471" width="120" height="40" as="geometry" />
        </mxCell>
        <mxCell id="mIaSV0qaz3qORUngoqXa-189" style="edgeStyle=orthogonalEdgeStyle;rounded=0;orthogonalLoop=1;jettySize=auto;html=1;" edge="1" parent="WIyWlLk6GJQsqaUBKTNV-1" source="mIaSV0qaz3qORUngoqXa-158">
          <mxGeometry relative="1" as="geometry">
            <mxPoint x="503" y="1070" as="targetPoint" />
          </mxGeometry>
        </mxCell>
        <mxCell id="mIaSV0qaz3qORUngoqXa-158" value="회원 정보 수정" style="rounded=1;whiteSpace=wrap;html=1;fontSize=12;glass=0;strokeWidth=1;shadow=0;" vertex="1" parent="WIyWlLk6GJQsqaUBKTNV-1">
          <mxGeometry x="334" y="1050" width="120" height="40" as="geometry" />
        </mxCell>
        <mxCell id="mIaSV0qaz3qORUngoqXa-159" value="공지사항" style="rounded=1;whiteSpace=wrap;html=1;fontSize=12;glass=0;strokeWidth=1;shadow=0;" vertex="1" parent="WIyWlLk6GJQsqaUBKTNV-1">
          <mxGeometry x="334" y="1157" width="120" height="40" as="geometry" />
        </mxCell>
        <mxCell id="mIaSV0qaz3qORUngoqXa-225" style="edgeStyle=orthogonalEdgeStyle;rounded=0;orthogonalLoop=1;jettySize=auto;html=1;exitX=1;exitY=0.5;exitDx=0;exitDy=0;" edge="1" parent="WIyWlLk6GJQsqaUBKTNV-1" source="mIaSV0qaz3qORUngoqXa-160">
          <mxGeometry relative="1" as="geometry">
            <mxPoint x="503" y="1280.6956521739132" as="targetPoint" />
          </mxGeometry>
        </mxCell>
        <mxCell id="mIaSV0qaz3qORUngoqXa-160" value="문의하기" style="rounded=1;whiteSpace=wrap;html=1;fontSize=12;glass=0;strokeWidth=1;shadow=0;" vertex="1" parent="WIyWlLk6GJQsqaUBKTNV-1">
          <mxGeometry x="334" y="1260.5" width="120" height="40" as="geometry" />
        </mxCell>
        <mxCell id="mIaSV0qaz3qORUngoqXa-229" style="edgeStyle=orthogonalEdgeStyle;rounded=0;orthogonalLoop=1;jettySize=auto;html=1;" edge="1" parent="WIyWlLk6GJQsqaUBKTNV-1" source="mIaSV0qaz3qORUngoqXa-161">
          <mxGeometry relative="1" as="geometry">
            <mxPoint x="503" y="1389" as="targetPoint" />
          </mxGeometry>
        </mxCell>
        <mxCell id="mIaSV0qaz3qORUngoqXa-161" value="추천 60분 후원하기" style="rounded=1;whiteSpace=wrap;html=1;fontSize=12;glass=0;strokeWidth=1;shadow=0;" vertex="1" parent="WIyWlLk6GJQsqaUBKTNV-1">
          <mxGeometry x="334" y="1369" width="120" height="40" as="geometry" />
        </mxCell>
        <mxCell id="mIaSV0qaz3qORUngoqXa-162" value="나의 활동" style="rounded=1;whiteSpace=wrap;html=1;fontSize=12;glass=0;strokeWidth=1;shadow=0;" vertex="1" parent="WIyWlLk6GJQsqaUBKTNV-1">
          <mxGeometry x="334" y="948" width="120" height="40" as="geometry" />
        </mxCell>
        <mxCell id="mIaSV0qaz3qORUngoqXa-164" value="" style="endArrow=classic;html=1;rounded=0;exitX=0.17;exitY=1.004;exitDx=0;exitDy=0;exitPerimeter=0;entryX=0;entryY=0.5;entryDx=0;entryDy=0;" edge="1" parent="WIyWlLk6GJQsqaUBKTNV-1" target="mIaSV0qaz3qORUngoqXa-162">
          <mxGeometry width="50" height="50" relative="1" as="geometry">
            <mxPoint x="281.0810000000006" y="967.7647000000002" as="sourcePoint" />
            <mxPoint x="335.2230000000004" y="966.52388" as="targetPoint" />
            <Array as="points" />
          </mxGeometry>
        </mxCell>
        <mxCell id="mIaSV0qaz3qORUngoqXa-165" value="" style="endArrow=classic;html=1;rounded=0;exitX=0;exitY=1;exitDx=0;exitDy=0;entryX=0;entryY=0;entryDx=0;entryDy=0;" edge="1" parent="WIyWlLk6GJQsqaUBKTNV-1" source="mIaSV0qaz3qORUngoqXa-152" target="mIaSV0qaz3qORUngoqXa-152">
          <mxGeometry width="50" height="50" relative="1" as="geometry">
            <mxPoint x="291.0810000000006" y="977.7647000000002" as="sourcePoint" />
            <mxPoint x="345.2230000000004" y="976.52388" as="targetPoint" />
            <Array as="points" />
          </mxGeometry>
        </mxCell>
        <mxCell id="mIaSV0qaz3qORUngoqXa-166" value="" style="endArrow=classic;html=1;rounded=0;exitX=0.323;exitY=0.994;exitDx=0;exitDy=0;exitPerimeter=0;" edge="1" parent="WIyWlLk6GJQsqaUBKTNV-1" source="mIaSV0qaz3qORUngoqXa-152" target="mIaSV0qaz3qORUngoqXa-158">
          <mxGeometry width="50" height="50" relative="1" as="geometry">
            <mxPoint x="283" y="1071" as="sourcePoint" />
            <mxPoint x="345.2230000000004" y="976.52388" as="targetPoint" />
            <Array as="points" />
          </mxGeometry>
        </mxCell>
        <mxCell id="mIaSV0qaz3qORUngoqXa-168" value="" style="endArrow=classic;html=1;rounded=0;exitX=0.5;exitY=1;exitDx=0;exitDy=0;entryX=0.5;entryY=0;entryDx=0;entryDy=0;" edge="1" parent="WIyWlLk6GJQsqaUBKTNV-1" source="mIaSV0qaz3qORUngoqXa-152" target="mIaSV0qaz3qORUngoqXa-152">
          <mxGeometry width="50" height="50" relative="1" as="geometry">
            <mxPoint x="290" y="1082" as="sourcePoint" />
            <mxPoint x="343" y="1081" as="targetPoint" />
            <Array as="points" />
          </mxGeometry>
        </mxCell>
        <mxCell id="mIaSV0qaz3qORUngoqXa-171" value="" style="endArrow=classic;html=1;rounded=0;exitX=1;exitY=0.5;exitDx=0;exitDy=0;" edge="1" parent="WIyWlLk6GJQsqaUBKTNV-1" source="mIaSV0qaz3qORUngoqXa-156">
          <mxGeometry width="50" height="50" relative="1" as="geometry">
            <mxPoint x="453" y="1230" as="sourcePoint" />
            <mxPoint x="503" y="870" as="targetPoint" />
          </mxGeometry>
        </mxCell>
        <mxCell id="mIaSV0qaz3qORUngoqXa-172" value="On/Off" style="rounded=1;whiteSpace=wrap;html=1;fontSize=12;glass=0;strokeWidth=1;shadow=0;" vertex="1" parent="WIyWlLk6GJQsqaUBKTNV-1">
          <mxGeometry x="504" y="850" width="120" height="40" as="geometry" />
        </mxCell>
        <mxCell id="mIaSV0qaz3qORUngoqXa-173" value="" style="endArrow=classic;html=1;rounded=0;exitX=1;exitY=0.5;exitDx=0;exitDy=0;" edge="1" parent="WIyWlLk6GJQsqaUBKTNV-1" source="mIaSV0qaz3qORUngoqXa-162">
          <mxGeometry width="50" height="50" relative="1" as="geometry">
            <mxPoint x="463" y="880" as="sourcePoint" />
            <mxPoint x="503" y="968" as="targetPoint" />
          </mxGeometry>
        </mxCell>
        <mxCell id="mIaSV0qaz3qORUngoqXa-175" value="" style="endArrow=classic;html=1;rounded=0;exitX=0.662;exitY=1.012;exitDx=0;exitDy=0;exitPerimeter=0;entryX=0;entryY=0.5;entryDx=0;entryDy=0;" edge="1" parent="WIyWlLk6GJQsqaUBKTNV-1" target="mIaSV0qaz3qORUngoqXa-160">
          <mxGeometry width="50" height="50" relative="1" as="geometry">
            <mxPoint x="280.6529999999998" y="1281.0064200000002" as="sourcePoint" />
            <mxPoint x="333" y="1281.5" as="targetPoint" />
          </mxGeometry>
        </mxCell>
        <mxCell id="mIaSV0qaz3qORUngoqXa-176" value="" style="endArrow=classic;html=1;rounded=0;exitX=0.837;exitY=1.003;exitDx=0;exitDy=0;exitPerimeter=0;entryX=0;entryY=0.5;entryDx=0;entryDy=0;" edge="1" parent="WIyWlLk6GJQsqaUBKTNV-1" source="mIaSV0qaz3qORUngoqXa-152" target="mIaSV0qaz3qORUngoqXa-161">
          <mxGeometry width="50" height="50" relative="1" as="geometry">
            <mxPoint x="333" y="1350" as="sourcePoint" />
            <mxPoint x="383" y="1300" as="targetPoint" />
          </mxGeometry>
        </mxCell>
        <mxCell id="mIaSV0qaz3qORUngoqXa-177" value="" style="endArrow=classic;html=1;rounded=0;exitX=1;exitY=1;exitDx=0;exitDy=0;entryX=1;entryY=0;entryDx=0;entryDy=0;" edge="1" parent="WIyWlLk6GJQsqaUBKTNV-1" source="mIaSV0qaz3qORUngoqXa-152" target="mIaSV0qaz3qORUngoqXa-152">
          <mxGeometry width="50" height="50" relative="1" as="geometry">
            <mxPoint x="291" y="1399" as="sourcePoint" />
            <mxPoint x="343" y="1399" as="targetPoint" />
          </mxGeometry>
        </mxCell>
        <mxCell id="mIaSV0qaz3qORUngoqXa-178" value="내가 쓴 글/ 댓글" style="rounded=1;whiteSpace=wrap;html=1;fontSize=12;glass=0;strokeWidth=1;shadow=0;" vertex="1" parent="WIyWlLk6GJQsqaUBKTNV-1">
          <mxGeometry x="504" y="948" width="120" height="40" as="geometry" />
        </mxCell>
        <mxCell id="mIaSV0qaz3qORUngoqXa-184" value="" style="endArrow=classic;html=1;rounded=0;exitX=1;exitY=0.5;exitDx=0;exitDy=0;entryX=0;entryY=0.5;entryDx=0;entryDy=0;" edge="1" parent="WIyWlLk6GJQsqaUBKTNV-1" target="mIaSV0qaz3qORUngoqXa-185">
          <mxGeometry width="50" height="50" relative="1" as="geometry">
            <mxPoint x="624" y="967.57" as="sourcePoint" />
            <mxPoint x="673" y="967.57" as="targetPoint" />
          </mxGeometry>
        </mxCell>
        <mxCell id="mIaSV0qaz3qORUngoqXa-185" value="게시물 이동" style="rounded=1;whiteSpace=wrap;html=1;fontSize=12;glass=0;strokeWidth=1;shadow=0;" vertex="1" parent="WIyWlLk6GJQsqaUBKTNV-1">
          <mxGeometry x="674" y="948" width="120" height="40" as="geometry" />
        </mxCell>
        <mxCell id="mIaSV0qaz3qORUngoqXa-188" value="" style="curved=1;endArrow=classic;html=1;rounded=0;exitX=1;exitY=0.5;exitDx=0;exitDy=0;entryX=0.5;entryY=0;entryDx=0;entryDy=0;" edge="1" parent="WIyWlLk6GJQsqaUBKTNV-1" source="mIaSV0qaz3qORUngoqXa-185" target="mIaSV0qaz3qORUngoqXa-139">
          <mxGeometry width="50" height="50" relative="1" as="geometry">
            <mxPoint x="483" y="1040" as="sourcePoint" />
            <mxPoint x="533" y="990" as="targetPoint" />
            <Array as="points">
              <mxPoint x="853" y="710" />
              <mxPoint x="353" y="560" />
            </Array>
          </mxGeometry>
        </mxCell>
        <mxCell id="mIaSV0qaz3qORUngoqXa-192" style="edgeStyle=orthogonalEdgeStyle;rounded=0;orthogonalLoop=1;jettySize=auto;html=1;" edge="1" parent="WIyWlLk6GJQsqaUBKTNV-1" source="mIaSV0qaz3qORUngoqXa-190" target="mIaSV0qaz3qORUngoqXa-191">
          <mxGeometry relative="1" as="geometry" />
        </mxCell>
        <mxCell id="mIaSV0qaz3qORUngoqXa-190" value="비밀번호 확인" style="rounded=1;whiteSpace=wrap;html=1;fontSize=12;glass=0;strokeWidth=1;shadow=0;" vertex="1" parent="WIyWlLk6GJQsqaUBKTNV-1">
          <mxGeometry x="504" y="1050" width="120" height="40" as="geometry" />
        </mxCell>
        <mxCell id="mIaSV0qaz3qORUngoqXa-191" value="기존&lt;div&gt;비밀번호&lt;div&gt;인증&lt;/div&gt;&lt;/div&gt;" style="rhombus;whiteSpace=wrap;html=1;" vertex="1" parent="WIyWlLk6GJQsqaUBKTNV-1">
          <mxGeometry x="683" y="1030" width="80" height="80" as="geometry" />
        </mxCell>
        <mxCell id="mIaSV0qaz3qORUngoqXa-196" value="Yes" style="text;strokeColor=none;fillColor=none;align=left;verticalAlign=top;spacingLeft=4;spacingRight=4;overflow=hidden;rotatable=0;points=[[0,0.5],[1,0.5]];portConstraint=eastwest;whiteSpace=wrap;html=1;" vertex="1" parent="WIyWlLk6GJQsqaUBKTNV-1">
          <mxGeometry x="773" y="546" width="30" height="16" as="geometry" />
        </mxCell>
        <mxCell id="mIaSV0qaz3qORUngoqXa-197" style="edgeStyle=orthogonalEdgeStyle;rounded=0;orthogonalLoop=1;jettySize=auto;html=1;entryX=0.5;entryY=1;entryDx=0;entryDy=0;" edge="1" parent="WIyWlLk6GJQsqaUBKTNV-1">
          <mxGeometry relative="1" as="geometry">
            <mxPoint x="604" y="567" as="targetPoint" />
            <Array as="points">
              <mxPoint x="734" y="606" />
              <mxPoint x="604" y="606" />
            </Array>
            <mxPoint x="734" y="587" as="sourcePoint" />
          </mxGeometry>
        </mxCell>
        <mxCell id="mIaSV0qaz3qORUngoqXa-198" value="No" style="text;strokeColor=none;fillColor=none;align=left;verticalAlign=top;spacingLeft=4;spacingRight=4;overflow=hidden;rotatable=0;points=[[0,0.5],[1,0.5]];portConstraint=eastwest;whiteSpace=wrap;html=1;" vertex="1" parent="WIyWlLk6GJQsqaUBKTNV-1">
          <mxGeometry x="655" y="584" width="33" height="16" as="geometry" />
        </mxCell>
        <mxCell id="mIaSV0qaz3qORUngoqXa-201" style="edgeStyle=orthogonalEdgeStyle;rounded=0;orthogonalLoop=1;jettySize=auto;html=1;entryX=0;entryY=0.5;entryDx=0;entryDy=0;" edge="1" parent="WIyWlLk6GJQsqaUBKTNV-1" source="mIaSV0qaz3qORUngoqXa-199" target="mIaSV0qaz3qORUngoqXa-204">
          <mxGeometry relative="1" as="geometry">
            <mxPoint x="993" y="1049.9999999999998" as="targetPoint" />
            <Array as="points">
              <mxPoint x="993" y="1070" />
            </Array>
          </mxGeometry>
        </mxCell>
        <mxCell id="mIaSV0qaz3qORUngoqXa-206" style="edgeStyle=orthogonalEdgeStyle;rounded=0;orthogonalLoop=1;jettySize=auto;html=1;entryX=0;entryY=0.5;entryDx=0;entryDy=0;exitX=1;exitY=0.5;exitDx=0;exitDy=0;" edge="1" parent="WIyWlLk6GJQsqaUBKTNV-1" source="mIaSV0qaz3qORUngoqXa-199">
          <mxGeometry relative="1" as="geometry">
            <mxPoint x="993" y="1025.0000000000002" as="targetPoint" />
            <mxPoint x="953" y="1110" as="sourcePoint" />
            <Array as="points">
              <mxPoint x="943" y="1070" />
              <mxPoint x="943" y="1025" />
            </Array>
          </mxGeometry>
        </mxCell>
        <mxCell id="mIaSV0qaz3qORUngoqXa-199" value="계정 관리" style="rounded=1;whiteSpace=wrap;html=1;fontSize=12;glass=0;strokeWidth=1;shadow=0;" vertex="1" parent="WIyWlLk6GJQsqaUBKTNV-1">
          <mxGeometry x="813" y="1050" width="120" height="40" as="geometry" />
        </mxCell>
        <mxCell id="mIaSV0qaz3qORUngoqXa-204" value="정보 수정" style="rounded=1;whiteSpace=wrap;html=1;fontSize=12;glass=0;strokeWidth=1;shadow=0;" vertex="1" parent="WIyWlLk6GJQsqaUBKTNV-1">
          <mxGeometry x="993" y="1050" width="120" height="40" as="geometry" />
        </mxCell>
        <mxCell id="mIaSV0qaz3qORUngoqXa-207" value="정보 확인" style="rounded=1;whiteSpace=wrap;html=1;fontSize=12;glass=0;strokeWidth=1;shadow=0;" vertex="1" parent="WIyWlLk6GJQsqaUBKTNV-1">
          <mxGeometry x="993" y="1000" width="120" height="40" as="geometry" />
        </mxCell>
        <mxCell id="mIaSV0qaz3qORUngoqXa-208" value="개인 정보 확인" style="swimlane;fontStyle=0;childLayout=stackLayout;horizontal=1;startSize=26;fillColor=none;horizontalStack=0;resizeParent=1;resizeParentMax=0;resizeLast=0;collapsible=1;marginBottom=0;html=1;" vertex="1" parent="WIyWlLk6GJQsqaUBKTNV-1">
          <mxGeometry x="1156" y="957" width="110" height="80" as="geometry">
            <mxRectangle x="70" y="30" width="60" height="30" as="alternateBounds" />
          </mxGeometry>
        </mxCell>
        <mxCell id="mIaSV0qaz3qORUngoqXa-209" value="&lt;div&gt;&lt;div&gt;이름&lt;/div&gt;&lt;/div&gt;&lt;div&gt;전화번호&lt;/div&gt;&lt;div&gt;아이디&lt;/div&gt;" style="text;strokeColor=none;fillColor=none;align=center;verticalAlign=top;spacingLeft=4;spacingRight=4;overflow=hidden;rotatable=0;points=[[0,0.5],[1,0.5]];portConstraint=eastwest;whiteSpace=wrap;html=1;" vertex="1" parent="mIaSV0qaz3qORUngoqXa-208">
          <mxGeometry y="26" width="110" height="54" as="geometry" />
        </mxCell>
        <mxCell id="mIaSV0qaz3qORUngoqXa-213" style="edgeStyle=orthogonalEdgeStyle;rounded=0;orthogonalLoop=1;jettySize=auto;html=1;entryX=1;entryY=0.25;entryDx=0;entryDy=0;" edge="1" parent="WIyWlLk6GJQsqaUBKTNV-1" source="mIaSV0qaz3qORUngoqXa-209" target="mIaSV0qaz3qORUngoqXa-207">
          <mxGeometry relative="1" as="geometry" />
        </mxCell>
        <mxCell id="mIaSV0qaz3qORUngoqXa-214" value="" style="endArrow=none;dashed=1;html=1;dashPattern=1 3;strokeWidth=2;rounded=0;exitX=1;exitY=0.25;exitDx=0;exitDy=0;entryX=0;entryY=0.5;entryDx=0;entryDy=0;" edge="1" parent="WIyWlLk6GJQsqaUBKTNV-1" source="mIaSV0qaz3qORUngoqXa-207" target="mIaSV0qaz3qORUngoqXa-209">
          <mxGeometry width="50" height="50" relative="1" as="geometry">
            <mxPoint x="1053" y="890" as="sourcePoint" />
            <mxPoint x="1103" y="840" as="targetPoint" />
          </mxGeometry>
        </mxCell>
        <mxCell id="mIaSV0qaz3qORUngoqXa-219" style="edgeStyle=orthogonalEdgeStyle;rounded=0;orthogonalLoop=1;jettySize=auto;html=1;exitX=1;exitY=0.25;exitDx=0;exitDy=0;" edge="1" parent="WIyWlLk6GJQsqaUBKTNV-1" source="mIaSV0qaz3qORUngoqXa-215">
          <mxGeometry relative="1" as="geometry">
            <mxPoint x="1313" y="1070" as="targetPoint" />
          </mxGeometry>
        </mxCell>
        <mxCell id="mIaSV0qaz3qORUngoqXa-215" value="개인 정보 수정" style="swimlane;fontStyle=0;childLayout=stackLayout;horizontal=1;startSize=26;fillColor=none;horizontalStack=0;resizeParent=1;resizeParentMax=0;resizeLast=0;collapsible=1;marginBottom=0;html=1;" vertex="1" parent="WIyWlLk6GJQsqaUBKTNV-1">
          <mxGeometry x="1156" y="1050" width="110" height="80" as="geometry">
            <mxRectangle x="70" y="30" width="60" height="30" as="alternateBounds" />
          </mxGeometry>
        </mxCell>
        <mxCell id="mIaSV0qaz3qORUngoqXa-216" value="&lt;div&gt;&lt;div&gt;비밀번호&lt;/div&gt;&lt;/div&gt;&lt;div&gt;닉네임&lt;/div&gt;&lt;div&gt;이메일&lt;/div&gt;" style="text;strokeColor=none;fillColor=none;align=center;verticalAlign=top;spacingLeft=4;spacingRight=4;overflow=hidden;rotatable=0;points=[[0,0.5],[1,0.5]];portConstraint=eastwest;whiteSpace=wrap;html=1;" vertex="1" parent="mIaSV0qaz3qORUngoqXa-215">
          <mxGeometry y="26" width="110" height="54" as="geometry" />
        </mxCell>
        <mxCell id="mIaSV0qaz3qORUngoqXa-217" style="edgeStyle=orthogonalEdgeStyle;rounded=0;orthogonalLoop=1;jettySize=auto;html=1;entryX=1;entryY=0.5;entryDx=0;entryDy=0;exitX=0;exitY=0.25;exitDx=0;exitDy=0;" edge="1" parent="WIyWlLk6GJQsqaUBKTNV-1" source="mIaSV0qaz3qORUngoqXa-215" target="mIaSV0qaz3qORUngoqXa-204">
          <mxGeometry relative="1" as="geometry">
            <mxPoint x="1113" y="1101" as="targetPoint" />
          </mxGeometry>
        </mxCell>
        <mxCell id="mIaSV0qaz3qORUngoqXa-218" value="" style="endArrow=none;dashed=1;html=1;dashPattern=1 3;strokeWidth=2;rounded=0;exitX=1;exitY=0.5;exitDx=0;exitDy=0;entryX=0;entryY=0.25;entryDx=0;entryDy=0;" edge="1" parent="WIyWlLk6GJQsqaUBKTNV-1" target="mIaSV0qaz3qORUngoqXa-215" source="mIaSV0qaz3qORUngoqXa-204">
          <mxGeometry width="50" height="50" relative="1" as="geometry">
            <mxPoint x="1113" y="1101" as="sourcePoint" />
            <mxPoint x="1103" y="931" as="targetPoint" />
          </mxGeometry>
        </mxCell>
        <mxCell id="mIaSV0qaz3qORUngoqXa-220" value="수정된 정보 저장" style="rounded=1;whiteSpace=wrap;html=1;fontSize=12;glass=0;strokeWidth=1;shadow=0;" vertex="1" parent="WIyWlLk6GJQsqaUBKTNV-1">
          <mxGeometry x="1313" y="1050" width="120" height="40" as="geometry" />
        </mxCell>
        <mxCell id="mIaSV0qaz3qORUngoqXa-221" style="edgeStyle=orthogonalEdgeStyle;rounded=0;orthogonalLoop=1;jettySize=auto;html=1;exitX=1;exitY=0.5;exitDx=0;exitDy=0;" edge="1" parent="WIyWlLk6GJQsqaUBKTNV-1" source="mIaSV0qaz3qORUngoqXa-159">
          <mxGeometry relative="1" as="geometry">
            <mxPoint x="503" y="1177" as="targetPoint" />
            <mxPoint x="456" y="1179" as="sourcePoint" />
          </mxGeometry>
        </mxCell>
        <mxCell id="mIaSV0qaz3qORUngoqXa-222" value="상세 공지" style="rounded=1;whiteSpace=wrap;html=1;fontSize=12;glass=0;strokeWidth=1;shadow=0;" vertex="1" parent="WIyWlLk6GJQsqaUBKTNV-1">
          <mxGeometry x="504" y="1157" width="120" height="40" as="geometry" />
        </mxCell>
        <mxCell id="mIaSV0qaz3qORUngoqXa-223" style="edgeStyle=orthogonalEdgeStyle;rounded=0;orthogonalLoop=1;jettySize=auto;html=1;" edge="1" parent="WIyWlLk6GJQsqaUBKTNV-1">
          <mxGeometry relative="1" as="geometry">
            <mxPoint x="624" y="1176.7" as="sourcePoint" />
            <mxPoint x="683" y="1176.7" as="targetPoint" />
          </mxGeometry>
        </mxCell>
        <mxCell id="mIaSV0qaz3qORUngoqXa-224" value="이전 글 / 다음 글&amp;nbsp;" style="rounded=1;whiteSpace=wrap;html=1;fontSize=12;glass=0;strokeWidth=1;shadow=0;" vertex="1" parent="WIyWlLk6GJQsqaUBKTNV-1">
          <mxGeometry x="683" y="1156.75" width="120" height="40" as="geometry" />
        </mxCell>
        <mxCell id="mIaSV0qaz3qORUngoqXa-227" style="edgeStyle=orthogonalEdgeStyle;rounded=0;orthogonalLoop=1;jettySize=auto;html=1;" edge="1" parent="WIyWlLk6GJQsqaUBKTNV-1" source="mIaSV0qaz3qORUngoqXa-226">
          <mxGeometry relative="1" as="geometry">
            <mxPoint x="683" y="1280.5" as="targetPoint" />
          </mxGeometry>
        </mxCell>
        <mxCell id="mIaSV0qaz3qORUngoqXa-226" value="질문 작성" style="rounded=1;whiteSpace=wrap;html=1;fontSize=12;glass=0;strokeWidth=1;shadow=0;" vertex="1" parent="WIyWlLk6GJQsqaUBKTNV-1">
          <mxGeometry x="504" y="1260.5" width="120" height="40" as="geometry" />
        </mxCell>
        <mxCell id="mIaSV0qaz3qORUngoqXa-228" value="등록" style="rounded=1;whiteSpace=wrap;html=1;fontSize=12;glass=0;strokeWidth=1;shadow=0;" vertex="1" parent="WIyWlLk6GJQsqaUBKTNV-1">
          <mxGeometry x="684" y="1260.5" width="120" height="40" as="geometry" />
        </mxCell>
        <mxCell id="mIaSV0qaz3qORUngoqXa-230" value="결제 페이지" style="rounded=1;whiteSpace=wrap;html=1;fontSize=12;glass=0;strokeWidth=1;shadow=0;" vertex="1" parent="WIyWlLk6GJQsqaUBKTNV-1">
          <mxGeometry x="504" y="1369" width="120" height="40" as="geometry" />
        </mxCell>
      </root>
    </mxGraphModel>
  </diagram>
</mxfile>
